<mxfile host="drawio-plugin" modified="2021-03-16T10:32:39.572Z" agent="5.0 (Windows NT 6.2; Win64; x64) AppleWebKit/537.36 (KHTML, like Gecko) Chrome/84.0.4147.105 Safari/537.36" etag="JbUCKupr1Maqw2QfIObS" version="13.7.9" type="embed"><diagram id="fRdaBf5bwQc90FWThi53" name="Page-1"><mxGraphModel dx="1762" dy="397" grid="1" gridSize="10" guides="1" tooltips="1" connect="1" arrows="1" fold="1" page="1" pageScale="1" pageWidth="827" pageHeight="1169" math="0" shadow="0"><root><mxCell id="0"/><mxCell id="1" parent="0"/><mxCell id="2" value="" style="whiteSpace=wrap;html=1;" parent="1" vertex="1"><mxGeometry x="-390" y="240" width="1080" height="655" as="geometry"/></mxCell><mxCell id="4" value="Generer cadence de jeu" style="ellipse;whiteSpace=wrap;html=1;" parent="1" vertex="1"><mxGeometry x="-110" y="407.5" width="120" height="50" as="geometry"/></mxCell><mxCell id="5" value="Directeur tournoi" style="shape=umlActor;verticalLabelPosition=bottom;verticalAlign=top;html=1;outlineConnect=0;" parent="1" vertex="1"><mxGeometry x="-460" y="525" width="30" height="60" as="geometry"/></mxCell><mxCell id="6" value="&lt;span style=&quot;color: rgb(0 , 0 , 0) ; font-family: &amp;#34;helvetica&amp;#34; ; font-size: 12px ; font-style: normal ; font-weight: 400 ; letter-spacing: normal ; text-align: center ; text-indent: 0px ; text-transform: none ; word-spacing: 0px ; background-color: rgb(248 , 249 , 250) ; display: inline ; float: none&quot;&gt;Planifier un tournoi&amp;nbsp;&lt;br&gt;&lt;/span&gt;" style="ellipse;whiteSpace=wrap;html=1;" parent="1" vertex="1"><mxGeometry x="-110" y="532.5" width="140" height="30" as="geometry"/></mxCell><mxCell id="34" value="" style="edgeStyle=orthogonalEdgeStyle;rounded=0;orthogonalLoop=1;jettySize=auto;html=1;entryX=1;entryY=0.5;entryDx=0;entryDy=0;" parent="1" source="7" target="8" edge="1"><mxGeometry relative="1" as="geometry"><mxPoint x="690" y="568" as="targetPoint"/></mxGeometry></mxCell><mxCell id="35" value="" style="edgeStyle=orthogonalEdgeStyle;rounded=0;orthogonalLoop=1;jettySize=auto;html=1;entryX=1;entryY=0.5;entryDx=0;entryDy=0;" parent="1" source="7" target="28" edge="1"><mxGeometry relative="1" as="geometry"/></mxCell><mxCell id="7" value="Admin" style="shape=umlActor;verticalLabelPosition=bottom;verticalAlign=top;html=1;outlineConnect=0;" parent="1" vertex="1"><mxGeometry x="730" y="690" width="35" height="70" as="geometry"/></mxCell><mxCell id="8" value="Gerer les utilisateurs" style="ellipse;whiteSpace=wrap;html=1;verticalAlign=top;" parent="1" vertex="1"><mxGeometry x="400" y="732.5" width="120" height="40" as="geometry"/></mxCell><mxCell id="10" value="" style="endArrow=open;endFill=1;endSize=12;html=1;exitX=1;exitY=0.3333333333333333;exitDx=0;exitDy=0;exitPerimeter=0;" parent="1" source="5" edge="1"><mxGeometry width="160" relative="1" as="geometry"><mxPoint x="-270" y="552.5" as="sourcePoint"/><mxPoint x="-110" y="552.5" as="targetPoint"/></mxGeometry></mxCell><mxCell id="11" value="" style="endArrow=open;endFill=1;endSize=12;html=1;exitX=0.75;exitY=0.1;exitDx=0;exitDy=0;exitPerimeter=0;" parent="1" source="5" edge="1"><mxGeometry width="160" relative="1" as="geometry"><mxPoint x="-445" y="432.5" as="sourcePoint"/><mxPoint x="-110" y="432.5" as="targetPoint"/></mxGeometry></mxCell><mxCell id="13" value="&lt;span style=&quot;font-family: &amp;#34;helvetica&amp;#34;&quot;&gt;Commenter un tournoi&lt;/span&gt;" style="ellipse;whiteSpace=wrap;html=1;" parent="1" vertex="1"><mxGeometry x="-110" y="682.5" width="140" height="30" as="geometry"/></mxCell><mxCell id="14" value="" style="endArrow=open;endFill=1;endSize=12;html=1;entryX=0;entryY=0.5;entryDx=0;entryDy=0;" parent="1" source="5" target="13" edge="1"><mxGeometry width="160" relative="1" as="geometry"><mxPoint x="-270" y="592.5" as="sourcePoint"/><mxPoint x="-110" y="592.5" as="targetPoint"/></mxGeometry></mxCell><mxCell id="15" value="include" style="endArrow=open;endSize=12;dashed=1;html=1;" parent="1" target="16" edge="1"><mxGeometry width="160" relative="1" as="geometry"><mxPoint x="10" y="432.08000000000004" as="sourcePoint"/><mxPoint x="170" y="432.08000000000004" as="targetPoint"/></mxGeometry></mxCell><mxCell id="16" value="&amp;nbsp;Exporter un PDF" style="ellipse;whiteSpace=wrap;html=1;" parent="1" vertex="1"><mxGeometry x="270" y="402.50000000000017" width="140" height="70" as="geometry"/></mxCell><mxCell id="17" value="Creation d'un parcours" style="ellipse;whiteSpace=wrap;html=1;" parent="1" vertex="1"><mxGeometry x="130.00211745980843" y="512.4998805675732" width="140" height="70" as="geometry"/></mxCell><mxCell id="18" value="Creation d'un golf" style="ellipse;whiteSpace=wrap;html=1;" parent="1" vertex="1"><mxGeometry x="460" y="512.5" width="140" height="70" as="geometry"/></mxCell><mxCell id="19" value="extends" style="endArrow=open;endSize=12;dashed=1;html=1;entryX=1;entryY=0.5;entryDx=0;entryDy=0;" parent="1" target="6" edge="1"><mxGeometry width="160" relative="1" as="geometry"><mxPoint x="130" y="552.5" as="sourcePoint"/><mxPoint x="70" y="492.5" as="targetPoint"/></mxGeometry></mxCell><mxCell id="20" value="extends" style="endArrow=open;endSize=12;dashed=1;html=1;exitX=0;exitY=0.5;exitDx=0;exitDy=0;entryX=1;entryY=0.5;entryDx=0;entryDy=0;" parent="1" source="18" target="17" edge="1"><mxGeometry width="160" relative="1" as="geometry"><mxPoint x="270" y="542.5000000000002" as="sourcePoint"/><mxPoint x="330" y="492.5" as="targetPoint"/></mxGeometry></mxCell><mxCell id="21" value="Importer CSV" style="ellipse;whiteSpace=wrap;html=1;" parent="1" vertex="1"><mxGeometry x="274" y="282.5" width="140" height="70" as="geometry"/></mxCell><mxCell id="22" value="include" style="endArrow=open;endSize=12;dashed=1;html=1;exitX=1;exitY=0;exitDx=0;exitDy=0;" parent="1" source="4" edge="1"><mxGeometry width="160" relative="1" as="geometry"><mxPoint x="114" y="312.5" as="sourcePoint"/><mxPoint x="274" y="312.5" as="targetPoint"/><Array as="points"><mxPoint x="184" y="312.5"/></Array></mxGeometry></mxCell><mxCell id="23" style="edgeStyle=orthogonalEdgeStyle;rounded=0;orthogonalLoop=1;jettySize=auto;html=1;endArrow=oval;endFill=1;" parent="1" source="24" edge="1"><mxGeometry relative="1" as="geometry"><mxPoint x="80" y="552.5" as="targetPoint"/></mxGeometry></mxCell><mxCell id="24" value="&amp;nbsp;Si absence de parcours" style="shape=note;size=20;whiteSpace=wrap;html=1;" parent="1" vertex="1"><mxGeometry x="30" y="592.5" width="100" height="50" as="geometry"/></mxCell><mxCell id="25" style="edgeStyle=orthogonalEdgeStyle;rounded=0;orthogonalLoop=1;jettySize=auto;html=1;endArrow=oval;endFill=1;" parent="1" source="26" edge="1"><mxGeometry relative="1" as="geometry"><mxPoint x="370" y="552.5" as="targetPoint"/></mxGeometry></mxCell><mxCell id="26" value="Si absence de golf" style="shape=note;size=20;whiteSpace=wrap;html=1;" parent="1" vertex="1"><mxGeometry x="320" y="592.5" width="100" height="50" as="geometry"/></mxCell><mxCell id="28" value="Gérer les golfs et les parcours et les trous" style="ellipse;whiteSpace=wrap;html=1;" parent="1" vertex="1"><mxGeometry x="410" y="792.5" width="140" height="50" as="geometry"/></mxCell></root></mxGraphModel></diagram></mxfile>